<svg width="829" height="201" viewBox="0 0 829 201" fill="none" xmlns="http://www.w3.org/2000/svg">
<path d="M318.039 77.8408C318.039 83.6383 316.634 88.6777 313.824 92.959C311.015 97.2402 306.912 100.54 301.516 102.859C296.164 105.178 289.653 106.338 281.982 106.338C278.593 106.338 275.271 106.115 272.015 105.669C268.804 105.223 265.705 104.576 262.717 103.729C259.773 102.837 256.964 101.744 254.288 100.451V81.1855C258.926 83.237 263.743 85.0877 268.737 86.7378C273.732 88.3879 278.682 89.2129 283.588 89.2129C286.977 89.2129 289.698 88.7669 291.749 87.875C293.845 86.9831 295.361 85.7567 296.298 84.1958C297.234 82.6349 297.703 80.8511 297.703 78.8442C297.703 76.3914 296.878 74.2954 295.228 72.5562C293.577 70.8169 291.303 69.1891 288.404 67.6729C285.55 66.1566 282.317 64.5288 278.705 62.7896C276.43 61.7192 273.955 60.4259 271.279 58.9097C268.604 57.3488 266.062 55.4535 263.653 53.2236C261.245 50.9938 259.261 48.2957 257.7 45.1294C256.183 41.9185 255.425 38.0832 255.425 33.6235C255.425 27.7814 256.763 22.7866 259.439 18.6392C262.115 14.4917 265.928 11.3254 270.878 9.14014C275.873 6.91032 281.759 5.79541 288.538 5.79541C293.622 5.79541 298.461 6.39746 303.054 7.60156C307.692 8.76107 312.531 10.4557 317.57 12.6855L310.881 28.8071C306.377 26.9787 302.341 25.5739 298.773 24.5928C295.205 23.5671 291.571 23.0542 287.869 23.0542C285.283 23.0542 283.075 23.4779 281.247 24.3252C279.418 25.1279 278.036 26.2874 277.099 27.8037C276.163 29.2754 275.694 30.9924 275.694 32.9546C275.694 35.2736 276.363 37.2358 277.701 38.8413C279.084 40.4022 281.135 41.9185 283.855 43.3901C286.62 44.8618 290.054 46.5788 294.157 48.541C299.152 50.9046 303.411 53.3797 306.934 55.9663C310.502 58.5083 313.244 61.5186 315.162 64.9971C317.08 68.431 318.039 72.7122 318.039 77.8408ZM352.563 30.2119V105H332.16V30.2119H352.563ZM342.395 0.912109C345.428 0.912109 348.036 1.62565 350.222 3.05273C352.407 4.43522 353.5 7.04411 353.5 10.8794C353.5 14.6701 352.407 17.3013 350.222 18.7729C348.036 20.2 345.428 20.9136 342.395 20.9136C339.318 20.9136 336.687 20.2 334.501 18.7729C332.361 17.3013 331.291 14.6701 331.291 10.8794C331.291 7.04411 332.361 4.43522 334.501 3.05273C336.687 1.62565 339.318 0.912109 342.395 0.912109ZM413.377 45.5308H395.717V105H375.314V45.5308H364.076V35.6973L375.314 30.2119V24.7266C375.314 18.3493 376.384 13.3991 378.525 9.87598C380.71 6.30827 383.765 3.81087 387.689 2.38379C391.659 0.912109 396.341 0.17627 401.737 0.17627C405.706 0.17627 409.319 0.510742 412.574 1.17969C415.83 1.80404 418.483 2.51758 420.535 3.32031L415.317 18.3047C413.756 17.8141 412.061 17.3682 410.233 16.9668C408.404 16.5654 406.308 16.3647 403.945 16.3647C401.091 16.3647 398.995 17.2344 397.657 18.9736C396.363 20.6683 395.717 22.8535 395.717 25.5293V30.2119H413.377V45.5308ZM454.658 90.0825C456.888 90.0825 459.05 89.8595 461.146 89.4136C463.287 88.9676 465.405 88.4102 467.501 87.7412V102.926C465.316 103.907 462.596 104.71 459.34 105.334C456.129 106.003 452.606 106.338 448.771 106.338C444.311 106.338 440.298 105.624 436.73 104.197C433.207 102.726 430.42 100.206 428.368 96.6382C426.361 93.0259 425.358 88.0088 425.358 81.5869V45.5308H415.591V36.9014L426.83 30.0781L432.716 14.291H445.761V30.2119H466.699V45.5308H445.761V81.5869C445.761 84.4411 446.563 86.5817 448.169 88.0088C449.819 89.3913 451.982 90.0825 454.658 90.0825ZM540.022 77.8408C540.022 83.6383 538.617 88.6777 535.808 92.959C532.998 97.2402 528.895 100.54 523.499 102.859C518.147 105.178 511.636 106.338 503.966 106.338C500.576 106.338 497.254 106.115 493.999 105.669C490.788 105.223 487.688 104.576 484.7 103.729C481.757 102.837 478.947 101.744 476.271 100.451V81.1855C480.91 83.237 485.726 85.0877 490.721 86.7378C495.715 88.3879 500.666 89.2129 505.571 89.2129C508.961 89.2129 511.681 88.7669 513.732 87.875C515.828 86.9831 517.345 85.7567 518.281 84.1958C519.218 82.6349 519.686 80.8511 519.686 78.8442C519.686 76.3914 518.861 74.2954 517.211 72.5562C515.561 70.8169 513.286 69.1891 510.388 67.6729C507.534 66.1566 504.3 64.5288 500.688 62.7896C498.414 61.7192 495.938 60.4259 493.263 58.9097C490.587 57.3488 488.045 55.4535 485.637 53.2236C483.229 50.9938 481.244 48.2957 479.683 45.1294C478.167 41.9185 477.409 38.0832 477.409 33.6235C477.409 27.7814 478.747 22.7866 481.422 18.6392C484.098 14.4917 487.911 11.3254 492.861 9.14014C497.856 6.91032 503.743 5.79541 510.521 5.79541C515.605 5.79541 520.444 6.39746 525.038 7.60156C529.676 8.76107 534.514 10.4557 539.554 12.6855L532.864 28.8071C528.36 26.9787 524.324 25.5739 520.756 24.5928C517.189 23.5671 513.554 23.0542 509.853 23.0542C507.266 23.0542 505.058 23.4779 503.23 24.3252C501.402 25.1279 500.019 26.2874 499.083 27.8037C498.146 29.2754 497.678 30.9924 497.678 32.9546C497.678 35.2736 498.347 37.2358 499.685 38.8413C501.067 40.4022 503.118 41.9185 505.839 43.3901C508.604 44.8618 512.038 46.5788 516.141 48.541C521.135 50.9046 525.394 53.3797 528.917 55.9663C532.485 58.5083 535.228 61.5186 537.146 64.9971C539.063 68.431 540.022 72.7122 540.022 77.8408ZM622.777 30.2119V105H607.124L604.381 95.4341H603.311C601.706 97.9761 599.699 100.05 597.291 101.655C594.882 103.261 592.229 104.443 589.33 105.201C586.431 105.959 583.421 106.338 580.299 106.338C574.948 106.338 570.287 105.401 566.318 103.528C562.349 101.611 559.25 98.645 557.02 94.6313C554.835 90.6177 553.742 85.3999 553.742 78.978V30.2119H574.145V73.894C574.145 79.2456 575.104 83.2816 577.021 86.002C578.939 88.7223 581.994 90.0825 586.186 90.0825C590.333 90.0825 593.589 89.146 595.953 87.2729C598.316 85.3553 599.966 82.568 600.903 78.9111C601.884 75.2096 602.375 70.7054 602.375 65.3984V30.2119H622.777ZM662.586 0.912109V25.1279C662.586 27.9375 662.497 30.7248 662.319 33.4897C662.185 36.2547 662.007 38.3953 661.784 39.9116H662.586C664.549 36.8345 667.224 34.2256 670.614 32.085C674.003 29.8997 678.396 28.8071 683.792 28.8071C692.176 28.8071 698.977 32.085 704.195 38.6406C709.413 45.1963 712.021 54.8068 712.021 67.4722C712.021 75.9901 710.817 83.1478 708.409 88.9453C706.001 94.6982 702.634 99.0464 698.308 101.99C693.982 104.889 688.965 106.338 683.257 106.338C677.771 106.338 673.446 105.357 670.279 103.395C667.113 101.432 664.549 99.2248 662.586 96.772H661.182L657.77 105H642.184V0.912109H662.586ZM677.236 45.1294C673.669 45.1294 670.837 45.8652 668.741 47.3369C666.645 48.8086 665.106 51.0161 664.125 53.9595C663.188 56.9028 662.676 60.6266 662.586 65.1309V67.3384C662.586 74.6076 663.657 80.1821 665.797 84.062C667.938 87.8973 671.84 89.8149 677.504 89.8149C681.696 89.8149 685.018 87.875 687.471 83.9951C689.969 80.1152 691.217 74.5184 691.217 67.2046C691.217 59.8908 689.969 54.3831 687.471 50.6816C684.974 46.9801 681.562 45.1294 677.236 45.1294ZM281.075 172.667C281.075 175.524 280.355 177.923 278.916 179.864C277.476 181.783 275.524 183.233 273.06 184.215C270.595 185.174 267.803 185.654 264.685 185.654C262.743 185.654 260.977 185.556 259.385 185.36C257.814 185.185 256.386 184.945 255.099 184.64C253.834 184.335 252.678 183.986 251.631 183.593V180.224C253.333 180.878 255.295 181.456 257.52 181.958C259.766 182.437 262.209 182.677 264.848 182.677C267.334 182.677 269.537 182.317 271.457 181.598C273.398 180.878 274.924 179.787 276.037 178.326C277.149 176.865 277.705 175.022 277.705 172.797C277.705 170.834 277.236 169.231 276.298 167.988C275.382 166.723 273.997 165.644 272.144 164.75C270.29 163.833 267.956 162.907 265.143 161.969C263.18 161.293 261.391 160.584 259.777 159.842C258.185 159.079 256.822 158.207 255.688 157.225C254.554 156.222 253.681 155.022 253.071 153.626C252.482 152.209 252.188 150.54 252.188 148.621C252.188 145.982 252.853 143.768 254.183 141.98C255.535 140.17 257.356 138.807 259.646 137.891C261.958 136.953 264.554 136.484 267.433 136.484C269.723 136.484 271.893 136.702 273.943 137.138C276.015 137.553 278.01 138.185 279.93 139.036L278.752 141.947C276.833 141.118 274.913 140.508 272.994 140.115C271.075 139.723 269.177 139.526 267.302 139.526C265.055 139.526 263.049 139.864 261.282 140.541C259.537 141.195 258.153 142.187 257.127 143.518C256.102 144.848 255.59 146.527 255.59 148.556C255.59 150.649 256.059 152.34 256.997 153.626C257.956 154.913 259.308 155.982 261.053 156.833C262.82 157.683 264.903 158.512 267.302 159.319C270.137 160.278 272.58 161.293 274.63 162.361C276.68 163.408 278.261 164.739 279.374 166.353C280.508 167.966 281.075 170.071 281.075 172.667ZM316.108 149.439V185H313.425L312.935 178.588H312.738C312.128 179.896 311.266 181.085 310.154 182.154C309.042 183.222 307.678 184.073 306.064 184.706C304.451 185.338 302.575 185.654 300.438 185.654C297.711 185.654 295.421 185.185 293.567 184.248C291.735 183.288 290.35 181.848 289.413 179.929C288.475 178.01 288.006 175.611 288.006 172.732V149.439H291.31V172.405C291.31 175.96 292.106 178.577 293.698 180.256C295.312 181.936 297.668 182.775 300.765 182.775C303.382 182.775 305.574 182.274 307.34 181.271C309.129 180.267 310.481 178.751 311.397 176.723C312.335 174.673 312.804 172.121 312.804 169.068V149.439H316.108ZM329.32 134.096V148.556C329.32 149.799 329.299 151.162 329.255 152.645C329.211 154.128 329.168 155.36 329.124 156.342H329.32C330.171 154.139 331.654 152.318 333.77 150.878C335.885 149.439 338.524 148.719 341.687 148.719C346.31 148.719 349.876 150.279 352.384 153.397C354.914 156.516 356.179 161.085 356.179 167.105C356.179 170.791 355.612 174.03 354.478 176.821C353.344 179.591 351.654 181.761 349.407 183.332C347.183 184.88 344.391 185.654 341.032 185.654C338.001 185.654 335.525 185.022 333.606 183.757C331.687 182.47 330.291 180.867 329.418 178.948H329.157L328.535 185H326.016V134.096H329.32ZM341.327 151.598C338.513 151.598 336.223 152.209 334.457 153.43C332.69 154.63 331.392 156.385 330.563 158.697C329.735 161.009 329.32 163.833 329.32 167.17V167.694C329.32 172.601 330.215 176.341 332.003 178.915C333.791 181.489 336.692 182.775 340.705 182.775C344.674 182.775 347.673 181.423 349.702 178.719C351.752 175.993 352.777 172.121 352.777 167.105C352.777 161.98 351.828 158.119 349.931 155.524C348.033 152.907 345.165 151.598 341.327 151.598ZM386.207 175.676C386.207 177.792 385.673 179.602 384.604 181.107C383.557 182.59 382.02 183.724 379.991 184.509C377.963 185.273 375.466 185.654 372.5 185.654C370.035 185.654 367.832 185.436 365.891 185C363.95 184.564 362.325 184.029 361.017 183.397V180.125C362.652 180.932 364.463 181.587 366.447 182.088C368.432 182.59 370.471 182.841 372.565 182.841C376.229 182.841 378.868 182.219 380.482 180.976C382.096 179.733 382.903 178.032 382.903 175.873C382.903 174.455 382.499 173.288 381.692 172.372C380.907 171.434 379.773 170.627 378.29 169.951C376.807 169.275 375.019 168.588 372.925 167.89C370.744 167.149 368.803 166.418 367.102 165.698C365.422 164.957 364.103 163.986 363.143 162.787C362.183 161.565 361.704 159.908 361.704 157.814C361.704 154.957 362.849 152.732 365.139 151.14C367.429 149.548 370.504 148.752 374.364 148.752C376.502 148.752 378.486 148.959 380.318 149.374C382.172 149.766 383.852 150.279 385.356 150.911L384.179 153.725C382.826 153.092 381.267 152.58 379.5 152.187C377.734 151.794 375.967 151.598 374.201 151.598C371.3 151.598 369.032 152.111 367.396 153.136C365.76 154.161 364.942 155.666 364.942 157.65C364.942 159.177 365.335 160.377 366.12 161.249C366.905 162.1 368.028 162.819 369.49 163.408C370.951 163.975 372.685 164.608 374.691 165.306C376.763 166.025 378.672 166.778 380.417 167.563C382.183 168.348 383.59 169.362 384.637 170.605C385.684 171.849 386.207 173.539 386.207 175.676ZM407.435 185.654C403.901 185.654 400.913 184.924 398.471 183.462C396.05 181.979 394.218 179.875 392.975 177.148C391.753 174.4 391.143 171.151 391.143 167.399C391.143 163.495 391.851 160.159 393.269 157.389C394.687 154.597 396.682 152.46 399.256 150.977C401.829 149.493 404.85 148.752 408.318 148.752C410.019 148.752 411.6 148.905 413.062 149.21C414.523 149.515 415.842 149.941 417.02 150.486L416.137 153.397C414.915 152.852 413.618 152.438 412.244 152.154C410.87 151.871 409.55 151.729 408.285 151.729C405.363 151.729 402.876 152.372 400.826 153.659C398.798 154.924 397.238 156.734 396.148 159.09C395.079 161.424 394.545 164.182 394.545 167.367C394.545 170.355 395.003 173.005 395.919 175.316C396.835 177.606 398.242 179.417 400.139 180.747C402.037 182.056 404.468 182.71 407.435 182.71C409.158 182.71 410.793 182.535 412.342 182.187C413.912 181.838 415.341 181.39 416.627 180.845V183.855C415.472 184.378 414.13 184.804 412.604 185.131C411.099 185.48 409.376 185.654 407.435 185.654ZM437.201 148.817C438.139 148.817 439.022 148.872 439.851 148.981C440.679 149.09 441.454 149.243 442.173 149.439L441.65 152.481C440.93 152.285 440.2 152.143 439.458 152.056C438.716 151.947 437.92 151.893 437.07 151.893C435.39 151.893 433.886 152.209 432.555 152.841C431.247 153.474 430.134 154.379 429.218 155.557C428.302 156.734 427.604 158.152 427.125 159.81C426.645 161.467 426.405 163.321 426.405 165.371V185H423.068V149.439H425.914L426.241 156.146H426.438C426.983 154.771 427.746 153.539 428.728 152.449C429.731 151.336 430.941 150.453 432.359 149.799C433.777 149.145 435.39 148.817 437.201 148.817ZM450.446 149.439V185H447.142V149.439H450.446ZM448.843 136.288C449.672 136.288 450.282 136.538 450.675 137.04C451.067 137.52 451.264 138.174 451.264 139.003C451.264 139.832 451.067 140.486 450.675 140.966C450.282 141.446 449.672 141.686 448.843 141.686C448.058 141.686 447.469 141.446 447.076 140.966C446.684 140.486 446.487 139.832 446.487 139.003C446.487 138.174 446.684 137.52 447.076 137.04C447.469 136.538 448.058 136.288 448.843 136.288ZM476.09 148.752C480.67 148.752 484.214 150.29 486.722 153.365C489.252 156.44 490.517 160.976 490.517 166.974C490.517 170.987 489.917 174.389 488.718 177.181C487.518 179.951 485.806 182.056 483.582 183.495C481.379 184.935 478.729 185.654 475.632 185.654C473.494 185.654 471.63 185.338 470.038 184.706C468.467 184.051 467.159 183.179 466.112 182.088C465.065 180.976 464.258 179.755 463.691 178.424H463.462C463.527 179.667 463.582 180.965 463.625 182.317C463.669 183.67 463.691 184.945 463.691 186.145V200.736H460.354V149.439H463.102L463.495 156.538H463.691C464.28 155.186 465.109 153.91 466.177 152.71C467.246 151.511 468.598 150.551 470.234 149.832C471.87 149.112 473.822 148.752 476.09 148.752ZM475.665 151.664C472.982 151.664 470.746 152.252 468.958 153.43C467.191 154.586 465.872 156.287 465 158.534C464.149 160.758 463.713 163.485 463.691 166.712V167.269C463.691 170.736 464.116 173.626 464.967 175.938C465.839 178.228 467.137 179.94 468.86 181.074C470.605 182.208 472.764 182.775 475.337 182.775C477.867 182.775 480.005 182.154 481.75 180.911C483.494 179.667 484.825 177.868 485.741 175.513C486.657 173.157 487.115 170.3 487.115 166.941C487.115 161.947 486.155 158.152 484.236 155.557C482.338 152.961 479.481 151.664 475.665 151.664ZM507.852 182.808C508.877 182.808 509.825 182.732 510.698 182.579C511.592 182.426 512.377 182.23 513.053 181.99V184.738C512.355 184.978 511.537 185.185 510.6 185.36C509.662 185.556 508.626 185.654 507.492 185.654C505.485 185.654 503.817 185.284 502.486 184.542C501.156 183.779 500.153 182.634 499.477 181.107C498.8 179.558 498.462 177.596 498.462 175.218V152.187H493.163V150.224L498.43 149.21L499.575 140.835H501.767V149.439H512.857V152.187H501.767V175.022C501.767 177.574 502.236 179.515 503.173 180.845C504.133 182.154 505.692 182.808 507.852 182.808ZM521.98 149.439V185H518.676V149.439H521.98ZM520.377 136.288C521.206 136.288 521.816 136.538 522.209 137.04C522.602 137.52 522.798 138.174 522.798 139.003C522.798 139.832 522.602 140.486 522.209 140.966C521.816 141.446 521.206 141.686 520.377 141.686C519.592 141.686 519.003 141.446 518.61 140.966C518.218 140.486 518.021 139.832 518.021 139.003C518.021 138.174 518.218 137.52 518.61 137.04C519.003 136.538 519.592 136.288 520.377 136.288ZM561.364 167.17C561.364 169.918 561.026 172.427 560.35 174.695C559.674 176.941 558.671 178.882 557.34 180.518C556.01 182.154 554.352 183.419 552.368 184.313C550.405 185.207 548.115 185.654 545.498 185.654C543.011 185.654 540.798 185.218 538.856 184.346C536.915 183.451 535.269 182.187 533.917 180.551C532.586 178.915 531.572 176.974 530.874 174.728C530.176 172.459 529.827 169.94 529.827 167.17C529.827 163.354 530.46 160.071 531.725 157.323C533.011 154.553 534.843 152.438 537.221 150.977C539.62 149.493 542.488 148.752 545.825 148.752C549.271 148.752 552.139 149.537 554.429 151.107C556.741 152.656 558.474 154.815 559.63 157.585C560.786 160.355 561.364 163.55 561.364 167.17ZM533.229 167.17C533.229 170.289 533.677 173.015 534.571 175.349C535.465 177.683 536.817 179.504 538.627 180.812C540.459 182.121 542.771 182.775 545.563 182.775C548.42 182.775 550.765 182.121 552.597 180.812C554.429 179.504 555.781 177.672 556.653 175.316C557.526 172.961 557.962 170.246 557.962 167.17C557.962 164.182 557.548 161.522 556.719 159.188C555.89 156.854 554.581 155.022 552.793 153.692C551.005 152.34 548.671 151.664 545.792 151.664C541.67 151.664 538.54 153.038 536.403 155.786C534.287 158.534 533.229 162.329 533.229 167.17ZM584.849 148.752C588.84 148.752 591.905 149.799 594.042 151.893C596.179 153.986 597.248 157.269 597.248 161.74V185H593.977V161.936C593.977 158.403 593.17 155.807 591.556 154.15C589.942 152.492 587.597 151.664 584.522 151.664C580.618 151.664 577.63 152.809 575.558 155.099C573.508 157.367 572.483 160.802 572.483 165.404V185H569.179V149.439H571.861L572.352 155.917H572.548C573.181 154.586 574.042 153.387 575.133 152.318C576.245 151.227 577.608 150.366 579.222 149.733C580.836 149.079 582.712 148.752 584.849 148.752ZM635.516 185H632.113V140.213H616.606V137.171H651.022V140.213H635.516V185ZM669.469 148.817C670.407 148.817 671.29 148.872 672.119 148.981C672.948 149.09 673.722 149.243 674.442 149.439L673.918 152.481C673.199 152.285 672.468 152.143 671.727 152.056C670.985 151.947 670.189 151.893 669.338 151.893C667.659 151.893 666.154 152.209 664.824 152.841C663.515 153.474 662.403 154.379 661.487 155.557C660.571 156.734 659.873 158.152 659.393 159.81C658.913 161.467 658.673 163.321 658.673 165.371V185H655.336V149.439H658.183L658.51 156.146H658.706C659.251 154.771 660.015 153.539 660.996 152.449C661.999 151.336 663.21 150.453 664.627 149.799C666.045 149.145 667.659 148.817 669.469 148.817ZM691.842 148.817C695.746 148.817 698.668 149.799 700.609 151.762C702.55 153.725 703.521 156.854 703.521 161.151V185H700.969L700.38 178.784H700.184C699.421 180.115 698.494 181.303 697.403 182.35C696.313 183.375 694.972 184.182 693.379 184.771C691.809 185.36 689.89 185.654 687.622 185.654C685.332 185.654 683.369 185.273 681.733 184.509C680.119 183.746 678.865 182.634 677.971 181.172C677.098 179.711 676.662 177.934 676.662 175.84C676.662 172.307 678.123 169.624 681.046 167.792C683.968 165.938 688.167 164.891 693.641 164.651L700.25 164.324V161.74C700.25 158.097 699.53 155.502 698.09 153.954C696.651 152.405 694.524 151.631 691.711 151.631C689.879 151.631 688.112 151.871 686.411 152.351C684.732 152.809 683.02 153.474 681.275 154.346L680.228 151.598C681.929 150.791 683.75 150.126 685.691 149.603C687.654 149.079 689.704 148.817 691.842 148.817ZM700.217 166.909L694.001 167.17C689.486 167.389 686.051 168.195 683.696 169.591C681.34 170.987 680.163 173.081 680.163 175.873C680.163 178.119 680.861 179.842 682.256 181.042C683.674 182.241 685.637 182.841 688.145 182.841C692.049 182.841 695.026 181.729 697.076 179.504C699.148 177.279 700.195 174.248 700.217 170.409V166.909ZM727.202 185.654C723.669 185.654 720.681 184.924 718.238 183.462C715.817 181.979 713.985 179.875 712.742 177.148C711.521 174.4 710.91 171.151 710.91 167.399C710.91 163.495 711.619 160.159 713.037 157.389C714.454 154.597 716.45 152.46 719.023 150.977C721.597 149.493 724.618 148.752 728.085 148.752C729.787 148.752 731.368 148.905 732.829 149.21C734.29 149.515 735.61 149.941 736.788 150.486L735.904 153.397C734.683 152.852 733.385 152.438 732.011 152.154C730.637 151.871 729.318 151.729 728.053 151.729C725.13 151.729 722.644 152.372 720.594 153.659C718.565 154.924 717.006 156.734 715.916 159.09C714.847 161.424 714.312 164.182 714.312 167.367C714.312 170.355 714.771 173.005 715.687 175.316C716.603 177.606 718.009 179.417 719.907 180.747C721.804 182.056 724.236 182.71 727.202 182.71C728.925 182.71 730.561 182.535 732.109 182.187C733.68 181.838 735.108 181.39 736.395 180.845V183.855C735.239 184.378 733.898 184.804 732.371 185.131C730.866 185.48 729.143 185.654 727.202 185.654ZM746.107 134.096V159.777C746.107 161.369 746.085 162.994 746.042 164.651C746.02 166.287 745.987 167.923 745.943 169.559H746.009C746.641 168.817 747.296 168.043 747.972 167.236C748.67 166.407 749.357 165.611 750.033 164.848L764.1 149.439H768.091L754.057 164.684L769.334 185H765.376L751.799 166.876L746.107 172.863V185H742.803V134.096H746.107ZM786.734 148.752C789.766 148.752 792.285 149.461 794.292 150.878C796.32 152.296 797.825 154.237 798.806 156.702C799.809 159.166 800.311 161.991 800.311 165.175V167.563H774.63C774.63 172.448 775.753 176.2 778 178.817C780.268 181.434 783.507 182.743 787.716 182.743C789.919 182.743 791.827 182.568 793.441 182.219C795.077 181.848 796.887 181.227 798.872 180.354V183.397C797.127 184.182 795.382 184.749 793.637 185.098C791.892 185.469 789.886 185.654 787.618 185.654C784.019 185.654 780.998 184.913 778.556 183.43C776.135 181.925 774.303 179.809 773.06 177.083C771.838 174.357 771.228 171.173 771.228 167.53C771.228 163.975 771.816 160.78 772.994 157.945C774.194 155.11 775.938 152.874 778.229 151.238C780.54 149.581 783.376 148.752 786.734 148.752ZM786.702 151.598C783.299 151.598 780.54 152.732 778.425 155C776.331 157.247 775.099 160.497 774.728 164.75H796.876C796.876 162.154 796.505 159.864 795.764 157.879C795.022 155.895 793.899 154.357 792.394 153.267C790.911 152.154 789.014 151.598 786.702 151.598ZM822.258 148.817C823.196 148.817 824.079 148.872 824.908 148.981C825.737 149.09 826.511 149.243 827.231 149.439L826.708 152.481C825.988 152.285 825.257 152.143 824.516 152.056C823.774 151.947 822.978 151.893 822.127 151.893C820.448 151.893 818.943 152.209 817.613 152.841C816.304 153.474 815.192 154.379 814.276 155.557C813.36 156.734 812.662 158.152 812.182 159.81C811.702 161.467 811.462 163.321 811.462 165.371V185H808.125V149.439H810.972L811.299 156.146H811.495C812.04 154.771 812.804 153.539 813.785 152.449C814.788 151.336 815.999 150.453 817.417 149.799C818.834 149.145 820.448 148.817 822.258 148.817Z" fill="black"/>
<path d="M108.88 0C134.98 0 161.945 12.791 177.156 31.7183C182.342 37.6816 181.996 44.5957 177.156 48.6577C171.884 53.1519 165.143 51.5098 160.303 46.6699C147.599 31.8047 129.622 22.8164 108.88 22.8164C77.5073 22.8164 51.3203 43.5586 43.1963 72.0791H55.3823C62.9878 72.0791 64.8027 78.7339 60.8271 84.1787L37.0601 115.983C34.1216 119.959 28.936 120.045 25.9111 115.983L2.14405 84.1787C-2.00439 78.7339 -0.103022 72.0791 7.58887 72.0791H19.6885C28.5903 31.0269 65.3213 0 108.88 0ZM105.682 42.0894C110.522 42.0894 114.325 45.9785 114.325 50.7319V92.562L133.079 117.625C136.104 121.688 135.758 127.132 131.696 129.984C127.548 133.009 122.362 132.231 118.905 127.651L99.4595 101.982C97.8174 99.9082 97.0396 97.7476 97.0396 95.5005V50.7319C97.0396 45.9785 100.929 42.0894 105.682 42.0894ZM108.88 182.618C82.7793 182.618 55.8145 169.827 40.6035 150.899C35.3316 144.936 35.7637 137.936 40.5171 133.96C45.7891 129.466 52.5303 131.021 57.3701 135.948C70.1611 150.727 88.0513 159.801 108.88 159.888C140.166 159.888 166.353 139.059 174.563 110.539H162.291C154.686 110.539 152.871 103.884 156.933 98.439L180.613 66.6343C183.638 62.6587 188.737 62.5723 191.762 66.6343L215.616 98.439C219.764 103.884 217.863 110.539 210.171 110.539H198.071C189.169 151.504 152.438 182.618 108.88 182.618Z" fill="black"/>
</svg>
