<svg width="64" height="64" viewBox="0 0 64 64" fill="none" xmlns="http://www.w3.org/2000/svg">
<rect width="64" height="64" fill="#2548D5"/>
<g clip-path="url(#clip0_105_301)">
<path fill-rule="evenodd" clip-rule="evenodd" d="M47 31.4916V48.9832H43.8492C42.76 48.9832 40.6984 48.9832 40.6984 48.9832C40.6984 48.9832 40.6984 47.6273 40.6984 47.1092V44.7544L36.3616 47.1491C32.6978 49.8953 23.5882 49.513 20.5331 46.4843C17.7995 43.7744 17.1353 36.7015 19.2463 32.7897C20.7801 29.9486 26.9331 27.7434 33.3242 27.7434H38.1777V24.6199V21.6627L29.3554 21.4964H20.5331V17.7482V14H33.7665H47V31.4916ZM25.9639 40.6922C24.7502 37.555 27.2721 34.6976 32.0071 33.843C34.3614 33.4182 36.7119 32.9959 37.2325 32.9059C37.4271 32.8718 38.1777 32.9059 38.1777 32.9059V36.288V39.4734C38.1777 39.4734 36.0012 40.8193 34.9676 41.2857C30.4557 43.3234 26.8927 43.0885 25.9639 40.6922Z" fill="#FF7D00"/>
</g>
<defs>
<clipPath id="clip0_105_301">
<rect width="29" height="35" fill="white" transform="translate(18 14)"/>
</clipPath>
</defs>
</svg>
