<svg width="64" height="64" viewBox="0 0 64 64" fill="none" xmlns="http://www.w3.org/2000/svg">
<rect width="64" height="64" fill="white"/>
<g clip-path="url(#clip0_6_2)">
<path d="M29.519 14.4355L14.0568 20.8039C13.1969 21.1581 13.2058 22.374 14.0711 22.7154L29.5978 28.8441C30.962 29.3826 32.4813 29.3826 33.8455 28.8441L49.3724 22.7151C50.2374 22.374 50.2468 21.1583 49.3865 20.8041L33.9247 14.4353C32.5141 13.8543 30.9294 13.8543 29.5188 14.4353" fill="#FCB400"/>
<path d="M33.0991 32.1906V47.5012C33.0991 48.2292 33.8369 48.7281 34.5169 48.4597L51.8183 41.7752C52.0113 41.6991 52.1769 41.567 52.2935 41.3961C52.4101 41.2251 52.4725 41.0233 52.4724 40.8167V25.5063C52.4724 24.7781 51.7347 24.2794 51.0546 24.5477L33.7531 31.2323C33.5602 31.3085 33.3947 31.4406 33.2781 31.6115C33.1615 31.7824 33.0991 31.9843 33.0991 32.1909" fill="#18BFFF"/>
<path d="M29.0591 32.9809L23.9245 35.4487L23.4031 35.6995L12.564 40.869C11.8772 41.1989 11 40.7005 11 39.9408V25.5707C11 25.2959 11.1416 25.0585 11.3315 24.88C11.4094 24.8028 11.4977 24.7368 11.594 24.684C11.8528 24.5294 12.2223 24.488 12.5364 24.6117L28.9729 31.0942C29.8084 31.4242 29.874 32.5894 29.0591 32.9812" fill="#F82B60"/>
<path d="M29.0592 32.9809L23.9246 35.4487L11.3315 24.8798C11.4095 24.8027 11.4978 24.7368 11.5941 24.684C11.8529 24.5294 12.2223 24.488 12.5365 24.6117L28.973 31.0942C29.8085 31.4242 29.8741 32.5894 29.0592 32.9812" fill="black" fill-opacity="0.25"/>
</g>
<defs>
<clipPath id="clip0_6_2">
<rect width="42" height="35" fill="white" transform="translate(11 14)"/>
</clipPath>
</defs>
</svg>
