<svg width="64" height="64" viewBox="0 0 64 64" fill="none" xmlns="http://www.w3.org/2000/svg">
<rect width="64" height="64" fill="white"/>
<g clip-path="url(#clip0_105_313)">
<path d="M46.5741 43.4867C30.7869 51 20.9893 44.7138 14.7175 40.8957C14.3294 40.6551 13.6697 40.9519 14.2421 41.6093C16.3315 44.1428 23.1791 50.2493 32.1171 50.2493C41.0614 50.2493 46.3823 45.3689 47.048 44.5176C47.7091 43.6734 47.2421 43.2078 46.5739 43.4867H46.5741ZM51.0078 41.0381C50.5839 40.486 48.4299 40.3831 47.0744 40.5496C45.7167 40.7113 43.6789 41.5411 43.856 42.0393C43.947 42.2259 44.1325 42.1422 45.0652 42.0583C46.0004 41.965 48.6203 41.6344 49.1662 42.348C49.7147 43.0666 48.3306 46.4897 48.0778 47.0418C47.8336 47.5938 48.1712 47.7362 48.6299 47.3685C49.0824 47.001 49.9015 46.0491 50.4511 44.7021C50.997 43.3477 51.3299 41.4584 51.0077 41.0381H51.0078Z" fill="#FF9900"/>
<path fill-rule="evenodd" clip-rule="evenodd" d="M35.9591 28.1557C35.9591 30.1271 36.0089 31.7712 35.0125 33.5219C34.2082 34.9454 32.9343 35.8207 31.5109 35.8207C29.5679 35.8207 28.4363 34.3404 28.4363 32.1555C28.4363 27.8425 32.3008 27.0597 35.9591 27.0597V28.1557ZM41.062 40.4896C40.7274 40.7884 40.2435 40.8099 39.8663 40.6105C38.1867 39.2156 37.8877 38.568 36.9626 37.2371C34.1869 40.0697 32.2226 40.9165 28.6214 40.9165C24.3654 40.9165 21.0488 38.2903 21.0488 33.0309C21.0488 28.9244 23.2766 26.1273 26.4435 24.761C29.1907 23.5509 33.0269 23.3375 35.9591 23.0031V22.3482C35.9591 21.1454 36.0515 19.722 35.347 18.683C34.7278 17.7506 33.5464 17.3663 32.5072 17.3663C30.5786 17.3663 28.8562 18.3555 28.4363 20.4052C28.3508 20.8608 28.0164 21.3092 27.561 21.3305L22.6501 20.8039C22.2374 20.7112 21.782 20.3768 21.8958 19.7433C23.0274 13.7936 28.4006 12 33.2117 12C35.6742 12 38.8911 12.6548 40.8341 14.5196C43.2966 16.8183 43.0617 19.8857 43.0617 23.2236V31.1093C43.0617 33.4793 44.0439 34.5183 44.969 35.7994C45.2964 36.2549 45.3676 36.8031 44.9548 37.1445C43.9228 38.0056 42.0866 39.607 41.0761 40.5038L41.0618 40.4896" fill="black"/>
<path d="M46.5741 43.4867C30.7869 51 20.9893 44.7138 14.7175 40.8957C14.3294 40.6551 13.6697 40.9519 14.2421 41.6093C16.3315 44.1428 23.1791 50.2493 32.1171 50.2493C41.0614 50.2493 46.3823 45.3689 47.048 44.5176C47.7091 43.6734 47.2421 43.2078 46.5739 43.4867H46.5741ZM51.0078 41.0381C50.5839 40.486 48.4299 40.3831 47.0744 40.5496C45.7167 40.7113 43.6789 41.5411 43.856 42.0393C43.947 42.2259 44.1325 42.1422 45.0652 42.0583C46.0004 41.965 48.6203 41.6344 49.1662 42.348C49.7147 43.0666 48.3306 46.4897 48.0778 47.0418C47.8336 47.5938 48.1712 47.7362 48.6299 47.3685C49.0824 47.001 49.9015 46.0491 50.4511 44.7021C50.997 43.3477 51.3299 41.4584 51.0077 41.0381H51.0078Z" fill="#FF9900"/>
<path fill-rule="evenodd" clip-rule="evenodd" d="M35.9591 28.1557C35.9591 30.1271 36.0089 31.7712 35.0125 33.5219C34.2082 34.9454 32.9343 35.8207 31.5109 35.8207C29.5679 35.8207 28.4363 34.3404 28.4363 32.1555C28.4363 27.8425 32.3008 27.0597 35.9591 27.0597V28.1557ZM41.062 40.4896C40.7274 40.7884 40.2435 40.8099 39.8663 40.6105C38.1867 39.2156 37.8877 38.568 36.9626 37.2371C34.1869 40.0697 32.2226 40.9165 28.6214 40.9165C24.3654 40.9165 21.0488 38.2903 21.0488 33.0309C21.0488 28.9244 23.2766 26.1273 26.4435 24.761C29.1907 23.5509 33.0269 23.3375 35.9591 23.0031V22.3482C35.9591 21.1454 36.0515 19.722 35.347 18.683C34.7278 17.7506 33.5464 17.3663 32.5072 17.3663C30.5786 17.3663 28.8562 18.3555 28.4363 20.4052C28.3508 20.8608 28.0164 21.3092 27.561 21.3305L22.6501 20.8039C22.2374 20.7112 21.782 20.3768 21.8958 19.7433C23.0274 13.7936 28.4006 12 33.2117 12C35.6742 12 38.8911 12.6548 40.8341 14.5196C43.2966 16.8183 43.0617 19.8857 43.0617 23.2236V31.1093C43.0617 33.4793 44.0439 34.5183 44.969 35.7994C45.2964 36.2549 45.3676 36.8031 44.9548 37.1445C43.9228 38.0056 42.0866 39.607 41.0761 40.5038L41.0618 40.4896" fill="black"/>
</g>
<defs>
<clipPath id="clip0_105_313">
<rect width="39" height="39" fill="white" transform="translate(13 12)"/>
</clipPath>
</defs>
</svg>
