<svg width="64" height="64" viewBox="0 0 64 64" fill="none" xmlns="http://www.w3.org/2000/svg">
<rect width="64" height="64" fill="white"/>
<path d="M46.6898 23.4372C46.4671 23.61 42.5349 25.8257 42.5349 30.7524C42.5349 36.451 47.5384 38.467 47.6882 38.5169C47.6652 38.6398 46.8933 41.2779 45.0501 43.9659C43.4066 46.3313 41.6901 48.6929 39.0789 48.6929C36.4677 48.6929 35.7957 47.1761 32.7813 47.1761C29.8437 47.1761 28.7992 48.7428 26.4108 48.7428C24.0223 48.7428 22.3557 46.554 20.4396 43.866C18.22 40.7095 16.4268 35.8059 16.4268 31.1518C16.4268 23.6868 21.2805 19.7278 26.0575 19.7278C28.5957 19.7278 30.7116 21.3943 32.3052 21.3943C33.822 21.3943 36.1874 19.6279 39.0751 19.6279C40.1695 19.6279 44.1016 19.7278 46.6898 23.4372ZM37.7042 16.4676C38.8984 15.0507 39.7432 13.0846 39.7432 11.1185C39.7432 10.8459 39.7202 10.5694 39.6703 10.3467C37.7272 10.4196 35.4156 11.6407 34.0216 13.2574C32.9272 14.5015 31.9058 16.4676 31.9058 18.4606C31.9058 18.7601 31.9557 19.0596 31.9788 19.1556C32.1016 19.1787 32.3013 19.2055 32.501 19.2055C34.2444 19.2055 36.437 18.0382 37.7042 16.4676Z" fill="black"/>
</svg>
