<svg width="64" height="64" viewBox="0 0 64 64" fill="none" xmlns="http://www.w3.org/2000/svg">
<rect width="64" height="64" fill="white"/>
<g clip-path="url(#clip0_105_341)">
<path fill-rule="evenodd" clip-rule="evenodd" d="M44.0384 33.0459C39.1208 33.0459 35.134 37.0347 35.134 41.9555C35.134 46.876 39.1208 50.8648 44.0384 50.8648C48.9561 50.8648 52.9427 46.876 52.9427 41.9555C52.9427 37.0347 48.9561 33.0459 44.0384 33.0459ZM20.9043 33.0467C15.9866 33.0467 12 37.0347 12 41.9555C12 46.876 15.9866 50.8648 20.9043 50.8648C25.8222 50.8648 29.809 46.876 29.809 41.9555C29.809 37.0347 25.8222 33.0467 20.9043 33.0467ZM41.3755 21.9091C41.3755 26.8298 37.3891 30.8191 32.4713 30.8191C27.5535 30.8191 23.5671 26.8298 23.5671 21.9091C23.5671 16.9892 27.5535 13 32.4713 13C37.3891 13 41.3755 16.9892 41.3755 21.9091Z" fill="#F06A6A"/>
</g>
<defs>
<clipPath id="clip0_105_341">
<rect width="41" height="38" fill="white" transform="translate(12 13)"/>
</clipPath>
</defs>
</svg>
