<svg width="64" height="64" viewBox="0 0 64 64" fill="none" xmlns="http://www.w3.org/2000/svg">
<rect width="64" height="64" fill="white"/>
<g clip-path="url(#clip0_105_316)">
<path d="M39.3507 37.6264C38.1542 38.6917 36.66 40.0173 33.9507 40.0173H32.3305C30.37 40.0173 28.5867 39.3024 27.3104 38.0064C26.0635 36.7401 25.3772 35.0071 25.3772 33.1257V30.9017C25.3772 29.0204 26.0635 27.2873 27.3104 26.021C28.5867 24.7251 30.37 24.0112 32.3305 24.0112H33.9507C36.6633 24.0112 38.1542 25.3357 39.3507 26.401C40.5931 27.4993 41.6648 28.4592 44.523 28.4592C44.9589 28.4591 45.3942 28.4242 45.8246 28.3549L45.8147 28.3296C45.6435 27.903 45.4428 27.4891 45.2138 27.0908L43.3036 23.7707C42.4422 22.274 41.2032 21.0312 39.7114 20.1671C38.2194 19.303 36.5272 18.8482 34.8045 18.8483H30.983C29.2603 18.8482 27.568 19.303 26.0761 20.1671C24.5843 21.0312 23.3453 22.274 22.4839 23.7707L20.5737 27.0908C19.7126 28.5876 19.2593 30.2855 19.2593 32.0137C19.2593 33.742 19.7126 35.4399 20.5737 36.9367L22.4839 40.2568C23.3453 41.7535 24.5843 42.9963 26.0761 43.8604C27.568 44.7244 29.2603 45.1793 30.983 45.1792H34.8045C36.5272 45.1793 38.2194 44.7244 39.7114 43.8604C41.2032 42.9963 42.4422 41.7535 43.3036 40.2568L45.2138 36.9422C45.4428 36.5439 45.6435 36.1299 45.8147 35.7034L45.8246 35.6792C45.3944 35.6075 44.9591 35.5708 44.523 35.5694C41.6648 35.5694 40.5931 36.5238 39.3507 37.6275" fill="#006BFF"/>
<path d="M33.9505 26.0265H32.3304C29.3463 26.0265 27.3857 28.1648 27.3857 30.9017V33.1257C27.3857 35.8626 29.3463 38.0009 32.3304 38.0009H33.9505C38.2986 38.0009 37.957 33.5529 44.5229 33.5529C45.145 33.5522 45.7658 33.6096 46.3772 33.7243C46.5765 32.5926 46.5765 31.4347 46.3772 30.3032C45.7657 30.4173 45.145 30.4746 44.5229 30.4745C37.9548 30.4745 38.2986 26.0265 33.9505 26.0265Z" fill="#006BFF"/>
<path d="M50.1494 35.3497C49.0313 34.5281 47.7417 33.9719 46.3782 33.7232C46.3782 33.7352 46.3782 33.7451 46.3782 33.7561C46.2609 34.4119 46.0774 35.0539 45.8309 35.6726C46.9573 35.8477 48.026 36.2892 48.9485 36.9609C48.9485 36.9696 48.943 36.9806 48.9398 36.9905C47.7524 40.8478 45.2254 44.1499 41.8177 46.2969C38.4101 48.4439 34.3479 49.2934 30.369 48.691C26.3902 48.0886 22.7587 46.0744 20.1343 43.0142C17.5098 39.954 16.0665 36.0508 16.0665 32.0137C16.0665 27.9766 17.5098 24.0735 20.1343 21.0133C22.7587 17.9531 26.3902 15.9388 30.369 15.3364C34.3479 14.7341 38.4101 15.5835 41.8177 17.7305C45.2254 19.8775 47.7524 23.1796 48.9398 27.0369C48.9398 27.0468 48.9452 27.0578 48.9485 27.0666C48.0261 27.7383 46.9573 28.1796 45.8309 28.3537C46.0772 28.9732 46.2605 29.616 46.3782 30.2724C46.3776 30.2826 46.3776 30.293 46.3782 30.3032C47.7417 30.0548 49.0312 29.499 50.1494 28.6777C51.2243 27.8793 51.0164 26.9776 50.8532 26.4439C49.5242 22.119 46.6927 18.416 42.8734 16.0078C39.0542 13.5996 34.5005 12.646 30.0399 13.3202C25.5793 13.9945 21.5078 16.2518 18.5652 19.6821C15.6227 23.1124 14.0044 27.488 14.0044 32.0137C14.0044 36.5394 15.6227 40.9151 18.5652 44.3453C21.5078 47.7756 25.5793 50.033 30.0399 50.7072C34.5005 51.3814 39.0542 50.4278 42.8734 48.0196C46.6927 45.6113 49.5242 41.9084 50.8532 37.5836C51.0164 37.0498 51.2243 36.1481 50.1494 35.3497Z" fill="#006BFF"/>
<path d="M45.8244 28.3537C45.3942 28.4255 44.9589 28.4621 44.5228 28.4636C41.6646 28.4636 40.5929 27.5092 39.3516 26.4054C38.154 25.3401 36.663 24.0145 33.9504 24.0145H32.3303C30.3687 24.0145 28.5865 24.7295 27.3101 26.0254C26.0633 27.2917 25.377 29.0248 25.377 30.9061V33.1301C25.377 35.0114 26.0633 36.7445 27.3101 38.0108C28.5865 39.3068 30.3687 40.0206 32.3303 40.0206H33.9504C36.663 40.0206 38.154 38.6961 39.3516 37.6308C40.5929 36.5325 41.6646 35.5726 44.5228 35.5726C44.9587 35.5728 45.394 35.6077 45.8244 35.677C46.0714 35.0585 46.2548 34.4164 46.3717 33.7605C46.3724 33.7495 46.3724 33.7385 46.3717 33.7276C45.7601 33.6138 45.1393 33.5568 44.5173 33.5573C37.9493 33.5573 38.293 38.0064 33.945 38.0064H32.3249C29.3408 38.0064 27.3802 35.867 27.3802 33.1301V30.9017C27.3802 28.1648 29.3408 26.0265 32.3249 26.0265H33.945C38.293 26.0265 37.9515 30.4734 44.5173 30.4734C45.1394 30.4745 45.7602 30.4175 46.3717 30.3032C46.3717 30.2933 46.3717 30.2834 46.3717 30.2724C46.254 29.616 46.0707 28.9732 45.8244 28.3537Z" fill="#0AE8F0"/>
<path d="M45.8244 28.3537C45.3942 28.4255 44.9589 28.4621 44.5228 28.4636C41.6646 28.4636 40.5929 27.5092 39.3516 26.4054C38.154 25.3401 36.663 24.0145 33.9504 24.0145H32.3303C30.3687 24.0145 28.5865 24.7295 27.3101 26.0254C26.0633 27.2917 25.377 29.0248 25.377 30.9061V33.1301C25.377 35.0114 26.0633 36.7445 27.3101 38.0108C28.5865 39.3068 30.3687 40.0206 32.3303 40.0206H33.9504C36.663 40.0206 38.154 38.6961 39.3516 37.6308C40.5929 36.5325 41.6646 35.5726 44.5228 35.5726C44.9587 35.5728 45.394 35.6077 45.8244 35.677C46.0714 35.0585 46.2548 34.4164 46.3717 33.7605C46.3724 33.7495 46.3724 33.7385 46.3717 33.7276C45.7601 33.6138 45.1393 33.5568 44.5173 33.5573C37.9493 33.5573 38.293 38.0064 33.945 38.0064H32.3249C29.3408 38.0064 27.3802 35.867 27.3802 33.1301V30.9017C27.3802 28.1648 29.3408 26.0265 32.3249 26.0265H33.945C38.293 26.0265 37.9515 30.4734 44.5173 30.4734C45.1394 30.4745 45.7602 30.4175 46.3717 30.3032C46.3717 30.2933 46.3717 30.2834 46.3717 30.2724C46.254 29.616 46.0707 28.9732 45.8244 28.3537Z" fill="#0AE8F0"/>
</g>
<defs>
<clipPath id="clip0_105_316">
<rect width="37" height="38" fill="white" transform="translate(14 13)"/>
</clipPath>
</defs>
</svg>
