<svg width="64" height="64" viewBox="0 0 64 64" fill="none" xmlns="http://www.w3.org/2000/svg">
<rect width="64" height="64" fill="url(#paint0_linear_105_296)"/>
<g clip-path="url(#clip0_105_296)">
<path d="M54.6872 34.5691C54.6107 34.5691 54.541 34.6171 54.505 34.7175C54.0437 35.9944 53.4206 36.754 52.9075 36.754C52.6128 36.754 52.4935 36.4353 52.4935 35.9355C52.4935 34.6847 53.2653 32.0327 53.6544 30.8235C53.6994 30.6773 53.7288 30.5463 53.7288 30.435C53.7288 30.0836 53.5307 29.9111 53.0403 29.9111C52.5115 29.9111 51.9422 30.1119 51.3887 31.0527C51.1975 30.2233 50.6193 29.8609 49.8115 29.8609C48.8778 29.8609 47.9756 30.4437 47.2331 31.3888C46.4906 32.334 45.6175 32.6439 44.9606 32.4911C45.4331 31.3692 45.6085 30.531 45.6085 29.9089C45.6085 28.9333 45.1113 28.3439 44.3081 28.3439C43.0862 28.3439 42.3819 29.4746 42.3819 30.6642C42.3819 31.5831 42.8118 32.5282 43.7568 32.9866C42.9647 34.724 41.8082 36.2956 41.3694 36.2956C40.8025 36.2956 40.636 33.6043 40.6675 31.6791C40.6878 30.5747 40.7822 30.5179 40.7822 30.184C40.7822 29.9919 40.654 29.8609 40.1387 29.8609C38.9372 29.8609 38.566 30.8475 38.5097 31.9804C38.4916 32.4109 38.4221 32.8379 38.3028 33.2529C37.801 34.9903 36.766 36.3087 36.091 36.3087C35.7782 36.3087 35.6928 36.0053 35.6928 35.608C35.6928 34.3573 36.415 32.7945 36.415 31.4609C36.415 30.4808 35.9718 29.8609 35.1369 29.8609C34.1538 29.8609 32.8532 30.9959 31.6225 33.1219C32.0275 31.4936 32.194 29.9177 30.9948 29.9177C30.7346 29.9215 30.4791 29.9858 30.25 30.1054C30.1731 30.1403 30.1087 30.1968 30.0654 30.2677C30.0221 30.3385 30.0017 30.4204 30.007 30.5026C30.1218 32.2357 28.567 36.6754 27.0933 36.6754C26.8255 36.6754 26.695 36.3938 26.695 35.9398C26.695 34.6869 27.4645 32.0415 27.8515 30.8301C27.901 30.6729 27.928 30.5376 27.928 30.4197C27.928 30.0879 27.7165 29.9177 27.2372 29.9177C26.7107 29.9177 26.1393 30.1119 25.588 31.0527C25.3945 30.2233 24.8162 29.8609 24.0085 29.8609C22.6832 29.8609 21.2028 31.2208 20.5525 32.9931C19.6818 35.3592 17.9268 37.6445 15.5643 37.6445C13.42 37.6445 12.2882 35.9136 12.2882 33.1787C12.2882 29.2301 15.2762 26.0041 17.4925 26.0041C18.5523 26.0041 19.0585 26.6589 19.0585 27.6629C19.0585 28.8787 18.3588 29.444 18.3588 29.9068C18.3588 30.0486 18.4802 30.1883 18.721 30.1883C19.684 30.1883 20.818 29.0904 20.818 27.5931C20.818 26.0957 19.5648 25 17.3485 25C13.6855 25 10 28.5753 10 33.1569C10 36.802 11.854 39 15.0603 39C17.2473 39 19.1575 37.3499 20.188 35.4247C20.305 37.0203 21.052 37.8541 22.1905 37.8541C23.203 37.8541 24.022 37.2691 24.6475 36.241C24.8883 37.3171 25.5272 37.8431 26.3575 37.8431C27.3092 37.8431 28.1058 37.2582 28.864 36.1712C28.8528 37.0246 29.053 37.8279 29.8157 37.8279C30.1757 37.8279 30.6055 37.7471 30.682 37.4415C31.4853 34.2198 33.4697 31.5896 34.0772 31.5896C34.2572 31.5896 34.3068 31.7577 34.3068 31.9563C34.3068 32.8316 33.67 34.6258 33.67 35.7718C33.67 37.0094 34.2122 37.8279 35.3328 37.8279C36.5747 37.8279 37.8369 36.3524 38.6785 34.1958C38.9418 36.2105 39.511 37.8366 40.4019 37.8366C41.4956 37.8366 43.4372 35.6037 44.614 33.2398C45.0753 33.2965 45.7682 33.2813 46.4343 32.8251C46.1507 33.5214 45.9843 34.2831 45.9843 35.0449C45.9843 37.2385 47.0643 37.8541 47.9935 37.8541C49.0038 37.8541 49.8228 37.2691 50.4506 36.241C50.6575 37.1687 51.1863 37.841 52.1582 37.841C53.6793 37.841 55 36.3327 55 35.0951C55 34.7677 54.856 34.5691 54.6872 34.5691ZM23.1175 36.6383C22.5033 36.6383 22.2625 36.0381 22.2625 35.1431C22.2625 33.589 23.3583 30.9938 24.517 30.9938C25.0233 30.9938 25.2145 31.5722 25.2145 32.2794C25.2145 33.8575 24.1728 36.6383 23.1175 36.6383ZM44.1572 32C43.7906 31.5766 43.6578 31.0003 43.6578 30.4874C43.6578 29.8544 43.8962 29.3196 44.1819 29.3196C44.4678 29.3196 44.5556 29.5925 44.5556 29.9722C44.5556 30.6074 44.3215 31.5351 44.1572 32ZM48.9206 36.6383C48.3063 36.6383 48.0656 35.9486 48.0656 35.1431C48.0656 33.6436 49.1612 30.9938 50.329 30.9938C50.8353 30.9938 51.0153 31.5678 51.0153 32.2794C51.0153 33.8575 49.9915 36.6383 48.9206 36.6383Z" fill="white"/>
</g>
<defs>
<linearGradient id="paint0_linear_105_296" x1="3" y1="4.00934e-07" x2="61.5" y2="64" gradientUnits="userSpaceOnUse">
<stop offset="0.11381" stop-color="#00BBC6"/>
<stop offset="0.612193" stop-color="#355AE4"/>
<stop offset="1" stop-color="#7225E3"/>
</linearGradient>
<clipPath id="clip0_105_296">
<rect width="45" height="14" fill="white" transform="translate(10 25)"/>
</clipPath>
</defs>
</svg>
