<svg width="64" height="64" viewBox="0 0 64 64" fill="none" xmlns="http://www.w3.org/2000/svg">
<rect width="64" height="64" fill="#4661EE"/>
<g clip-path="url(#clip0_105_299)">
<path d="M32 57C45.8071 57 57 45.8071 57 32C57 18.1929 45.8071 7 32 7C18.1929 7 7 18.1929 7 32C7 45.8071 18.1929 57 32 57Z" fill="#4661EE"/>
<path d="M32.9246 43.7647C36.4855 43.7647 38.8489 42.6313 40.9288 40.8053C41.2754 40.4904 41.559 40.0182 41.559 39.4199C41.559 38.444 40.7082 37.6254 39.7313 37.6254C39.2586 37.6254 38.8489 37.8143 38.5653 38.0662C36.9582 39.4199 35.3825 40.1756 33.0506 40.1756C28.8279 40.1756 25.7712 36.6809 25.7712 32.3676V32.3047C25.7712 27.9914 28.8594 24.5282 33.0506 24.5282C35.1619 24.5282 36.8006 25.2838 38.3132 26.5117C38.5652 26.7006 38.9434 26.8895 39.4792 26.8895C40.5506 26.8895 41.4015 26.0709 41.4015 25.0005C41.4015 24.3079 41.0548 23.7726 40.6451 23.4578C38.7229 21.9781 36.4855 20.9706 33.0821 20.9706C26.4014 20.9706 21.7061 26.1024 21.7061 32.3676V32.4306C21.7061 38.7588 26.496 43.7647 32.9246 43.7647Z" fill="white"/>
</g>
<defs>
<clipPath id="clip0_105_299">
<rect width="50" height="50" fill="white" transform="translate(7 7)"/>
</clipPath>
</defs>
</svg>
