<svg width="64" height="64" viewBox="0 0 64 64" fill="none" xmlns="http://www.w3.org/2000/svg">
<rect width="64" height="64" fill="#0056FE"/>
<g clip-path="url(#clip0_105_334)">
<path d="M23.5 12L11 20.1L19.7 27.1L32.2 19.3L23.5 12ZM11 33.9L23.5 42.1L32.2 34.8L19.7 27.1L11 33.9ZM32.2 34.8L41 42.1L53.4 34L44.8 27.1L32.2 34.8V34.8ZM53.4 20.1L41 12L32.2 19.3L44.8 27.1L53.4 20.1ZM32.3 36.4L23.5 43.7L19.8 41.2V44L32.3 51.5L44.8 44V41.2L41 43.7L32.3 36.4Z" fill="white"/>
</g>
<defs>
<clipPath id="clip0_105_334">
<rect width="43" height="40" fill="white" transform="translate(11 12)"/>
</clipPath>
</defs>
</svg>
