<svg width="64" height="64" viewBox="0 0 64 64" fill="none" xmlns="http://www.w3.org/2000/svg">
<rect width="64" height="64" fill="#1D1E25"/>
<g clip-path="url(#clip0_105_328)">
<path d="M25.0015 53C28.8648 53 32.0001 49.864 32.0001 46V39H25.0015C21.1383 39 18.0029 42.136 18.0029 46C18.0029 49.864 21.1383 53 25.0015 53Z" fill="#0ACF83"/>
<path d="M18.0029 32C18.0029 28.136 21.1383 25 25.0015 25H32.0001V39H25.0015C21.1383 39 18.0029 35.864 18.0029 32Z" fill="#A259FF"/>
<path d="M18.0029 18C18.0029 14.136 21.1383 11 25.0015 11H32.0001V25H25.0015C21.1383 25 18.0029 21.864 18.0029 18Z" fill="#F24E1E"/>
<path d="M32 11H38.9986C42.8618 11 45.9972 14.136 45.9972 18C45.9972 21.864 42.8618 25 38.9986 25H32V11Z" fill="#FF7262"/>
<path d="M45.9972 32C45.9972 35.864 42.8618 39 38.9986 39C35.1354 39 32 35.864 32 32C32 28.136 35.1354 25 38.9986 25C42.8618 25 45.9972 28.136 45.9972 32Z" fill="#1ABCFE"/>
</g>
<defs>
<clipPath id="clip0_105_328">
<rect width="28" height="42" fill="white" transform="translate(18 11)"/>
</clipPath>
</defs>
</svg>
