<svg width="64" height="64" viewBox="0 0 64 64" fill="none" xmlns="http://www.w3.org/2000/svg">
<rect width="64" height="64" fill="white"/>
<g clip-path="url(#clip0_105_332)">
<path d="M32.5 12C21.7308 12 13 20.7301 13 31.5H52C52 20.7301 43.2699 12 32.5 12Z" fill="#129C78"/>
<path d="M32.5 51C43.2699 51 52 42.2694 52 31.5001H13C13 42.2694 21.7308 51 32.5 51Z" fill="#129C78"/>
<path opacity="0.2" fill-rule="evenodd" clip-rule="evenodd" d="M36.3473 34.3998C36.153 34.3998 35.961 34.4428 35.7852 34.5256C35.5201 34.6504 35.3039 34.8597 35.1706 35.1206C35.0374 35.3816 34.9945 35.6794 35.0487 35.9673C35.1637 36.6057 35.764 37.0429 36.4129 37.0429H38.4558L39.6404 36.8768C37.7452 39.6572 34.4552 40.9359 30.8577 40.3715C27.9297 39.9114 25.416 37.9309 24.3495 35.1638C21.9425 28.8818 26.5304 22.8841 32.5084 22.8841C35.6246 22.8841 38.356 24.7084 39.9228 26.9106V26.9585C40.1204 27.2488 40.4247 27.4492 40.7693 27.5157C41.1141 27.5822 41.4713 27.5095 41.7625 27.3134C42.0335 27.126 42.2236 26.8427 42.2941 26.5208C42.365 26.1988 42.3111 25.8621 42.1433 25.5783H42.1533C41.0464 23.8446 39.4923 22.4414 37.655 21.5164C35.8177 20.5915 33.765 20.179 31.7131 20.3224C26.0155 20.7063 21.4017 25.3719 21.0741 31.0756C20.6933 37.7141 25.9591 43.1343 32.5084 43.1343C34.1428 43.1407 35.7594 42.7936 37.247 42.1165C38.7346 41.4396 40.0583 40.4487 41.1272 39.2123L40.8789 40.6039V41.8607C40.8789 42.5083 41.3153 43.1092 41.9544 43.2241C42.1456 43.2603 42.3421 43.2539 42.5305 43.2051C42.7188 43.1566 42.894 43.0671 43.0436 42.9429C43.1935 42.819 43.3138 42.6632 43.3964 42.4872C43.4793 42.3112 43.5221 42.1193 43.5219 41.9248V34.3998H36.3473Z" fill="black"/>
<path fill-rule="evenodd" clip-rule="evenodd" d="M36.3473 34.1432C36.153 34.1432 35.961 34.1862 35.7852 34.269C35.5201 34.3938 35.3039 34.6031 35.1706 34.864C35.0374 35.125 34.9945 35.4228 35.0487 35.7107C35.1637 36.3491 35.764 36.7863 36.4129 36.7863H38.4558L39.6404 36.6202C37.7452 39.4006 34.4552 40.6794 30.8577 40.1149C27.9297 39.6548 25.416 37.6743 24.3495 34.9072C21.9425 28.6252 26.5304 22.6276 32.5084 22.6276C35.6246 22.6276 38.356 24.4518 39.9228 26.654V26.7019C40.1204 26.9922 40.4247 27.1926 40.7693 27.2591C41.1141 27.3257 41.4713 27.2529 41.7625 27.0568C42.0335 26.8694 42.2236 26.5862 42.2941 26.2642C42.365 25.9422 42.3111 25.6055 42.1433 25.3217H42.1533C41.0464 23.588 39.4923 22.1848 37.655 21.2598C35.8177 20.3349 33.765 19.9224 31.7131 20.0659C26.0155 20.4497 21.4017 25.1153 21.0741 30.8191C20.6933 37.4574 25.9591 42.8777 32.5084 42.8777C34.1428 42.8842 35.7594 42.537 37.247 41.8599C38.7346 41.183 40.0583 40.1921 41.1272 38.9557L40.8789 40.3474V41.6041C40.8789 42.2517 41.3153 42.8526 41.9544 42.9675C42.1456 43.0037 42.3421 42.9973 42.5305 42.9486C42.7188 42.9001 42.894 42.8105 43.0436 42.6863C43.1935 42.5624 43.3138 42.4067 43.3964 42.2306C43.4793 42.0546 43.5221 41.8627 43.5219 41.6682V34.1432H36.3473Z" fill="white"/>
</g>
<defs>
<clipPath id="clip0_105_332">
<rect width="39" height="39" fill="white" transform="translate(13 12)"/>
</clipPath>
</defs>
</svg>
