<svg width="64" height="64" viewBox="0 0 64 64" fill="none" xmlns="http://www.w3.org/2000/svg">
<rect width="64" height="64" fill="#FF3366"/>
<g clip-path="url(#clip0_105_363)">
<path d="M52.4833 7H11.5363C9.03628 7 7.00977 9.02652 7.00977 11.5265V52.4545C7.00977 54.9735 9.03628 57 11.5363 57H52.4643C54.9643 57 56.9908 54.9735 56.9908 52.4735V11.5265C57.0098 9.02652 54.9833 7 52.4833 7Z" fill="#FF3366"/>
<path d="M23.7138 22.7386C25.3805 22.7386 26.763 21.4318 26.763 19.7273C26.763 18.0227 25.3615 16.7159 23.7138 16.7159C22.0471 16.7159 20.6646 18.0227 20.6646 19.7273C20.6646 21.4318 22.0661 22.7386 23.7138 22.7386V22.7386Z" fill="white"/>
<path d="M17.3881 38.8561C17.2176 39.6136 17.1229 40.447 17.1229 41.1099C17.1229 43.7614 18.5623 45.5227 21.6116 45.5227C24.1494 45.5227 26.1949 44.0265 27.6722 41.5833L26.7631 45.2008H31.801L34.6797 33.6667C35.3994 30.75 36.782 29.2348 38.9032 29.2348C40.5699 29.2348 41.5926 30.2765 41.5926 31.9811C41.5926 32.4735 41.5547 33.0227 41.3653 33.5909L39.8881 38.8939C39.6608 39.6515 39.5661 40.428 39.5661 41.1477C39.5661 43.6667 41.0434 45.5038 44.1494 45.5038C46.801 45.5038 48.9032 43.7992 50.0775 39.7083L48.1078 38.9508C47.1229 41.697 46.2707 42.1894 45.5888 42.1894C44.907 42.1894 44.5472 41.7349 44.5472 40.8447C44.5472 40.447 44.6419 39.9924 44.7744 39.4432L46.2138 34.2727C46.5737 33.0606 46.7063 31.9811 46.7063 30.9962C46.7063 27.1326 44.3767 25.125 41.5358 25.125C38.8843 25.125 36.1949 27.5114 34.8502 30.0303L35.835 25.5227H28.1457L27.0661 29.5H30.6646L28.4487 38.3636C26.7063 42.2273 23.5244 42.2841 23.1267 42.2083C22.4638 42.0568 22.0472 41.8106 22.0472 40.9583C22.0472 40.4659 22.1419 39.7652 22.3691 38.8939L25.7404 25.5227H17.1987L16.1191 29.5H19.6608L17.3881 38.8561Z" fill="white"/>
</g>
<defs>
<clipPath id="clip0_105_363">
<rect width="50" height="50" fill="white" transform="translate(7 7)"/>
</clipPath>
</defs>
</svg>
