<svg width="64" height="64" viewBox="0 0 64 64" fill="none" xmlns="http://www.w3.org/2000/svg">
<rect width="64" height="64" fill="#5753F3"/>
<g clip-path="url(#clip0_105_292)">
<path d="M52.0224 29.459H40.135L50.4295 23.518L48.388 19.982L38.0921 25.923L44.0345 15.6335L40.4978 13.5925L34.554 23.8794V12H30.4684V23.8807L24.5247 13.5925L20.9865 15.6335L26.929 25.9204L16.6357 19.982L14.5929 23.518L24.8875 29.459H13V33.5423H24.8862L14.5929 39.4834L16.6344 43.0193L26.9302 37.0783L20.9865 47.3678L24.5234 49.4089L30.4684 39.1206V51H34.554V38.8658L40.6069 49.3438L43.9241 47.4302L37.8698 36.9497L48.3854 43.018L50.4282 39.482L40.135 33.541H52.0211V29.459H52.0224ZM32.5112 37.051C31.7818 37.0511 31.0596 36.9076 30.3859 36.6286C29.7121 36.3497 29.0997 35.9408 28.584 35.4252C28.0683 34.9097 27.6591 34.2977 27.3799 33.624C27.1007 32.9504 26.957 32.2285 26.9569 31.4994C26.9568 30.7702 27.1003 30.0481 27.3794 29.3745C27.6585 28.7009 28.0674 28.0887 28.5831 27.5731C29.0987 27.0575 29.7108 26.6484 30.3847 26.3693C31.0585 26.0902 31.7805 25.9465 32.5099 25.9464C33.9827 25.9463 35.3955 26.531 36.4371 27.5722C37.4788 28.6134 38.064 30.0256 38.0642 31.4981C38.0643 32.9705 37.4795 34.3829 36.438 35.4243C35.3966 36.4658 33.984 37.0508 32.5112 37.051Z" fill="white"/>
</g>
<defs>
<clipPath id="clip0_105_292">
<rect width="39" height="39" fill="white" transform="translate(13 12)"/>
</clipPath>
</defs>
</svg>
