<svg width="64" height="64" viewBox="0 0 64 64" fill="none" xmlns="http://www.w3.org/2000/svg">
<rect width="64" height="64" fill="#FFD02F"/>
<g clip-path="url(#clip0_105_283)">
<path d="M17.8316 7H46.1683C52.1466 7 57 11.8535 57 17.8316V46.1683C57 52.1466 52.1466 57 46.1683 57H17.8316C11.8535 57 7 52.1466 7 46.1683V17.8316C7 11.8535 11.8535 7 17.8316 7Z" fill="#FFD02F"/>
<path d="M41.7438 13.2444H36.254L40.8265 21.2793L30.7643 13.2444H25.2745L30.3056 23.0698L19.7847 13.2444H14.2949L19.7847 25.7481L14.2949 50.7555H19.7847L30.3056 23.9576L25.2745 50.7555H30.7643L40.8265 22.1819L36.254 50.7555H41.7438L51.8061 19.4888L41.7438 13.2444Z" fill="#050038"/>
</g>
<defs>
<clipPath id="clip0_105_283">
<rect width="50" height="50" fill="white" transform="translate(7 7)"/>
</clipPath>
</defs>
</svg>
