<svg width="64" height="64" viewBox="0 0 64 64" fill="none" xmlns="http://www.w3.org/2000/svg">
<rect width="64" height="64" fill="white"/>
<g clip-path="url(#clip0_105_303)">
<path d="M18.5929 42.6087C17.7767 42.6105 16.9747 42.3934 16.2687 41.9796C15.5628 41.5658 14.9783 40.9702 14.5748 40.2535C14.1776 39.5419 13.9795 38.7345 14.0017 37.9178C14.0239 37.1011 14.2657 36.306 14.7011 35.6174L22.9755 22.492C23.399 21.7866 24.0003 21.2074 24.7179 20.8135C25.4356 20.4196 26.2438 20.2252 27.0601 20.2501C27.8759 20.2699 28.6718 20.5082 29.3664 20.9407C30.061 21.3732 30.6294 21.9843 31.0133 22.7116C31.7847 24.1849 31.6883 25.9575 30.7644 27.3406L22.4952 40.466C22.0758 41.126 21.4983 41.6685 20.8162 42.0431C20.134 42.4176 19.3693 42.6122 18.5929 42.6087Z" fill="#F62B54"/>
<path d="M32.7856 42.6086C31.1168 42.6086 29.5811 41.7072 28.7747 40.2587C28.3783 39.549 28.1806 38.7437 28.2029 37.9292C28.2251 37.1146 28.4664 36.3216 28.9009 35.635L37.1596 22.5397C37.5768 21.8244 38.1759 21.2348 38.8948 20.8322C39.6137 20.4296 40.426 20.2286 41.2477 20.25C42.9307 20.2872 44.4558 21.2381 45.2272 22.7256C45.9933 24.2131 45.881 25.9964 44.9291 27.3759L36.6722 40.4711C36.2542 41.1284 35.679 41.6688 34.9997 42.0423C34.3205 42.4158 33.559 42.6106 32.7856 42.6086Z" fill="#FFCC00"/>
<path d="M46.6613 42.7183C49.014 42.7183 50.9213 40.8321 50.9213 38.5055C50.9213 36.1788 49.014 34.2926 46.6613 34.2926C44.3086 34.2926 42.4014 36.1788 42.4014 38.5055C42.4014 40.8321 44.3086 42.7183 46.6613 42.7183Z" fill="#00CA72"/>
</g>
<defs>
<clipPath id="clip0_105_303">
<rect width="37" height="23" fill="white" transform="translate(14 20)"/>
</clipPath>
</defs>
</svg>
