<svg width="64" height="64" viewBox="0 0 64 64" fill="none" xmlns="http://www.w3.org/2000/svg">
<rect width="64" height="64" fill="white"/>
<g clip-path="url(#clip0_105_308)">
<path d="M7 9.85349V54.1465C7 55.7224 8.27747 57 9.85349 57H54.1465C55.7224 57 57 55.7225 57 54.1465V9.85349C56.9999 8.27747 55.7224 7 54.1465 7H9.85349C8.27747 7 7 8.27747 7 9.85349ZM29.7956 20.6328H21.9489C21.1609 20.6328 20.5199 21.2737 20.5199 22.0618V29.61H13.9729V22.0618C13.9729 17.6639 17.551 14.0857 21.9489 14.0857H29.7958L29.7956 20.6328ZM50.0271 41.9382C50.0271 46.3361 46.449 49.9143 42.0511 49.9143H34.2042V43.3672H42.0511C42.8391 43.3672 43.4801 42.7263 43.4801 41.9382V34.39H50.0271V41.9382Z" fill="#FF1A03"/>
</g>
<defs>
<clipPath id="clip0_105_308">
<rect width="50" height="50" fill="white" transform="translate(7 7)"/>
</clipPath>
</defs>
</svg>
