<svg width="64" height="64" viewBox="0 0 64 64" fill="none" xmlns="http://www.w3.org/2000/svg">
<rect width="64" height="64" fill="#171212"/>
<g clip-path="url(#clip0_105_343)">
<path d="M31.9987 7.08244C18.2341 7.08244 7.0752 18.2411 7.0752 32.0057C7.0752 45.7708 18.2341 56.9286 31.9987 56.9286C45.7648 56.9286 56.9225 45.7708 56.9225 32.0057C56.9225 18.242 45.7648 7.08363 31.9984 7.08363L31.9987 7.08244V7.08244ZM43.4285 43.0289C42.982 43.761 42.0237 43.9932 41.2916 43.5437C35.4398 39.9693 28.0731 39.1598 19.3975 41.142C18.5615 41.3324 17.7282 40.8086 17.5377 39.9723C17.3463 39.136 17.8681 38.3027 18.7061 38.1122C28.2002 35.9423 36.3439 36.8771 42.9136 40.892C43.6457 41.3414 43.8779 42.2967 43.4285 43.0289V43.0289ZM46.4791 36.2417C45.9166 37.1568 44.7201 37.4455 43.8064 36.883C37.107 32.7643 26.8948 31.5717 18.9707 33.9771C17.9431 34.2875 16.8576 33.7083 16.5457 32.6824C16.2362 31.6548 16.8157 30.5714 17.8416 30.2589C26.8931 27.5125 38.1457 28.8429 45.8392 33.5705C46.7529 34.133 47.0416 35.3295 46.4791 36.242V36.2417ZM46.741 29.175C38.7082 24.4039 25.4553 23.9652 17.7859 26.2929C16.5544 26.6664 15.252 25.9711 14.8788 24.7396C14.5056 23.5074 15.2002 22.206 16.4326 21.8315C25.2365 19.1589 39.8719 19.6753 49.1201 25.1655C50.2303 25.8229 50.5934 27.2536 49.9356 28.3598C49.2809 29.4676 47.8463 29.8327 46.7422 29.175H46.741Z" fill="#1ED760"/>
</g>
<defs>
<clipPath id="clip0_105_343">
<rect width="50" height="50" fill="white" transform="translate(7 7)"/>
</clipPath>
</defs>
</svg>
