<svg width="64" height="64" viewBox="0 0 64 64" fill="none" xmlns="http://www.w3.org/2000/svg">
<rect width="64" height="64" fill="#3A48FF"/>
<g clip-path="url(#clip0_105_289)">
<path d="M49.8571 7H14.1429C10.198 7 7 10.198 7 14.1429V49.8571C7 53.802 10.198 57 14.1429 57H49.8571C53.802 57 57 53.802 57 49.8571V14.1429C57 10.198 53.802 7 49.8571 7Z" fill="#3A48FF"/>
<path d="M39.2323 27.6786C39.2323 27.6786 36.8216 35.25 36.6251 35.875C36.5537 35.2321 34.7859 21.6429 34.7859 21.6429C30.6787 21.6429 28.4823 24.5714 27.3216 27.6607C27.3216 27.6607 24.393 35.25 24.143 35.8929C24.1251 35.3036 23.6966 27.75 23.6966 27.75C23.4466 23.9643 19.9823 21.6607 17.1787 21.6607L20.5716 42.25C24.8751 42.2321 27.1966 39.3214 28.4109 36.2321C28.4109 36.2321 31.0001 29.5357 31.1073 29.2321C31.1251 29.5179 32.9644 42.25 32.9644 42.25C37.2859 42.25 39.6073 39.5179 40.8573 36.5357L46.9109 21.6607C42.643 21.6607 40.393 24.5714 39.2323 27.6786Z" fill="white"/>
</g>
<defs>
<clipPath id="clip0_105_289">
<rect width="50" height="50" fill="white" transform="translate(7 7)"/>
</clipPath>
</defs>
</svg>
