<svg width="64" height="64" viewBox="0 0 64 64" fill="none" xmlns="http://www.w3.org/2000/svg">
<rect width="64" height="64" fill="#FF4A00"/>
<g clip-path="url(#clip0_105_318)">
<path d="M38.2498 32.0109C38.2507 33.8138 37.9254 35.602 37.2898 37.2891C35.6021 37.9246 33.8136 38.2503 32.0102 38.2506H31.9891C30.132 38.2482 28.3527 37.9088 26.7109 37.2898C26.0749 35.6025 25.7494 33.8141 25.75 32.0109V31.9891C25.7491 30.1865 26.074 28.3987 26.709 26.7117C28.3966 26.075 30.1855 25.7492 31.9893 25.75H32.0104C33.8139 25.7491 35.6026 26.0749 37.29 26.7115C37.9257 28.3983 38.2509 30.1863 38.25 31.9889V32.0107L38.2498 32.0109ZM56.6527 27.8334H42.0598L52.3779 17.5145C51.5681 16.3768 50.6647 15.3087 49.6771 14.3213V14.3205C48.6896 13.3342 47.6218 12.4316 46.4848 11.6221L36.1658 21.941V7.34805C34.7934 7.11717 33.4042 7.00076 32.0125 7L31.9867 7C30.5711 7.00078 29.1846 7.12109 27.8334 7.34805V21.941L17.5145 11.6221C16.3772 12.4314 15.3099 13.3346 14.3236 14.3223L14.3182 14.3262C13.3323 15.3123 12.4302 16.3788 11.6211 17.5145L21.9408 27.8334H7.34805C7.34805 27.8334 7 30.5742 7 31.9914V32.0086C7 33.4258 7.12012 34.8146 7.34805 36.1666H21.941L11.6213 46.4855C13.2447 48.7637 15.2363 50.7553 17.5145 52.3787L27.8334 42.059V56.6527C29.2043 56.8825 30.5918 56.9986 31.9818 57H32.0172C33.4072 56.9987 34.7947 56.8826 36.1656 56.6527V42.059L46.4855 52.3787C47.6223 51.5689 48.6899 50.6661 49.6771 49.6795L49.6795 49.6771C50.6656 48.6897 51.5682 47.6222 52.3779 46.4855L42.0582 36.1666H56.6527C56.8799 34.817 56.9984 33.4322 57 32.0182V31.9818C56.9984 30.5678 56.8799 29.183 56.6527 27.8334V27.8334Z" fill="white"/>
</g>
<defs>
<clipPath id="clip0_105_318">
<rect width="50" height="50" fill="white" transform="translate(7 7)"/>
</clipPath>
</defs>
</svg>
